# xmcd
#
# Track frame offsets: 
#        150
#        19772
#        35406
#        48045
#        66301
#        81700
#        104276
#        135646
#        150576
#        165536
#        182820
#        196547
#        212475
#
# Disc length: 3153 seconds
#
# Revision: 0
# Processed by: cddbd v1.5.2PL0 Copyright (c) Steve Scherf et al.
# Submitted via: ExactAudioCopyFreeDBPlugin 1.0
#
DISCID=a60c4f0d
DTITLE=Scooter Brown Band - American Son
DYEAR=2017
DGENRE=Country
TTITLE0=American Son (Feat. Charlie Daniels)
TTITLE1=This Town
TTITLE2=Won't Back Down
TTITLE3=Never Met A Heart I Wouldn't Break
TTITLE4=Pistols And Pearls
TTITLE5=Broken Arrow
TTITLE6=Georgia
TTITLE7=Story Of My Life
TTITLE8=Guitars, Guns And Whiskey
TTITLE9=Time Is Money
TTITLE10=Rise Up
TTITLE11=New York City King Size Rosewood Bed
TTITLE12=Huntsville
EXTD=
EXTT0=
EXTT1=
EXTT2=
EXTT3=
EXTT4=
EXTT5=
EXTT6=
EXTT7=
EXTT8=
EXTT9=
EXTT10=
EXTT11=
EXTT12=
PLAYORDER=
